<svg width="61" height="61" viewBox="0 0 61 61" fill="none" xmlns="http://www.w3.org/2000/svg">
<g id="Group 8632">
<circle id="Ellipse 7" cx="30.5" cy="30.5" r="30.5" fill="#FFBC12"/>
<path id="Vector" d="M35.6048 21H27.5704C24.0805 21 22 23.0805 22 26.5704V34.5952C22 38.0946 24.0805 40.1751 27.5704 40.1751H35.5952C39.085 40.1751 41.1655 38.0946 41.1655 34.6048V26.5704C41.1751 23.0805 39.0946 21 35.6048 21ZM31.5876 34.3075C29.5358 34.3075 27.8676 32.6393 27.8676 30.5876C27.8676 28.5358 29.5358 26.8676 31.5876 26.8676C33.6393 26.8676 35.3075 28.5358 35.3075 30.5876C35.3075 32.6393 33.6393 34.3075 31.5876 34.3075ZM37.2634 25.6787C37.2155 25.7938 37.1483 25.8992 37.0621 25.9951C36.9662 26.0814 36.8607 26.1485 36.7457 26.1965C36.6306 26.2444 36.506 26.2732 36.3813 26.2732C36.1225 26.2732 35.8828 26.1773 35.7006 25.9951C35.6143 25.8992 35.5472 25.7938 35.4993 25.6787C35.4514 25.5637 35.4226 25.439 35.4226 25.3144C35.4226 25.1898 35.4514 25.0651 35.4993 24.9501C35.5472 24.8254 35.6143 24.7296 35.7006 24.6337C35.9211 24.4132 36.2567 24.3077 36.5635 24.3748C36.6306 24.3844 36.6881 24.4036 36.7457 24.4323C36.8032 24.4515 36.8607 24.4803 36.9182 24.5186C36.9662 24.5474 37.0141 24.5953 37.0621 24.6337C37.1483 24.7296 37.2155 24.8254 37.2634 24.9501C37.3113 25.0651 37.3401 25.1898 37.3401 25.3144C37.3401 25.439 37.3113 25.5637 37.2634 25.6787Z" fill="white"/>
</g>
</svg>
