<svg width="61" height="61" viewBox="0 0 61 61" fill="none" xmlns="http://www.w3.org/2000/svg">
<g id="Group 8631">
<circle id="Ellipse 6" cx="30.5" cy="30.5" r="30.5" fill="#FFBC12"/>
<g id="7935ec95c421cee6d86eb22ecd125aef">
<path id="Vector" fill-rule="evenodd" clip-rule="evenodd" d="M24.2134 41.9513V27.1401H19.291V41.9512H24.2134V41.9513ZM21.7527 25.1186C23.4687 25.1186 24.5377 23.9803 24.5377 22.559C24.5052 21.1062 23.4687 20 21.7849 20C20.1008 20 19 21.1062 19 22.5591C19 23.9804 20.0684 25.1186 21.7203 25.1186L21.7527 25.1186ZM26.9378 41.9513C26.9378 41.9513 27.0024 28.5298 26.9378 27.1401H31.861V29.2881H31.8283C32.4756 28.2773 33.6419 26.7923 36.2973 26.7923C39.5369 26.7923 41.9652 28.9092 41.9652 33.4586V41.9513H37.0428V34.0277C37.0428 32.0368 36.3306 30.6782 34.5487 30.6782C33.189 30.6782 32.3787 31.5941 32.0228 32.4795C31.8927 32.7946 31.861 33.2372 31.861 33.6799V41.9513H26.9378Z" fill="white"/>
</g>
</g>
</svg>
