<svg width="36" height="36" viewBox="0 0 36 36" fill="none" xmlns="http://www.w3.org/2000/svg">
<g id="location-svgrepo-com 1" clip-path="url(#clip0_37_583)">
<g id="Page-1">
<g id="Icon-Set">
<path id="location" fill-rule="evenodd" clip-rule="evenodd" d="M18 16.875C16.1359 16.875 14.625 15.3641 14.625 13.5C14.625 11.6359 16.1359 10.125 18 10.125C19.8641 10.125 21.375 11.6359 21.375 13.5C21.375 15.3641 19.8641 16.875 18 16.875ZM18 7.875C14.8939 7.875 12.375 10.3927 12.375 13.5C12.375 16.6073 14.8939 19.125 18 19.125C21.1061 19.125 23.625 16.6073 23.625 13.5C23.625 10.3927 21.1061 7.875 18 7.875ZM18 32.625C16.1291 32.6351 6.75 18.2036 6.75 13.5C6.75 7.28775 11.7866 2.25 18 2.25C24.2134 2.25 29.25 7.28775 29.25 13.5C29.25 18.1406 19.8416 32.6351 18 32.625ZM18 0C10.5446 0 4.5 6.04463 4.5 13.5C4.5 19.1453 15.7556 36.0124 18 36C20.2095 36.0124 31.5 19.0688 31.5 13.5C31.5 6.04463 25.4554 0 18 0Z" fill="black"/>
</g>
</g>
</g>
<defs>
<clipPath id="clip0_37_583">
<rect width="36" height="36" fill="white"/>
</clipPath>
</defs>
</svg>
