<svg width="31" height="25" viewBox="0 0 31 25" fill="none" xmlns="http://www.w3.org/2000/svg">
<g id="Group 7759">
<path id="Vector" d="M1.25 5.44241L2.39935 6.16541L15.4105 14.3501L1.25 5.44241ZM1.25 5.44241V6.80025M1.25 5.44241V6.80025M1.25 6.80025L1.25 19.7721L1.25 19.773M1.25 6.80025L1.25 19.773M1.25 19.773C1.25118 20.8343 1.68556 21.8474 2.45068 22.5913C3.21508 23.3345 4.24713 23.7489 5.31931 23.75H5.3201M1.25 19.773L5.3201 23.75M5.3201 23.75H25.6799H25.6807M5.3201 23.75H25.6807M25.6807 23.75C26.7529 23.7489 27.7849 23.3345 28.5493 22.5913C29.3144 21.8474 29.7488 20.8343 29.75 19.773V19.7721M25.6807 23.75L29.75 19.7721M29.75 19.7721V6.79937V5.44146M29.75 19.7721V5.44146M29.75 5.44146L28.6006 6.16455M29.75 5.44146L28.6006 6.16455M28.6006 6.16455L15.5895 14.3501C15.5895 14.3501 15.5894 14.3501 15.5894 14.3502M28.6006 6.16455L15.5894 14.3502M15.5894 14.3502C15.5644 14.3658 15.5333 14.3752 15.5 14.3752M15.5894 14.3502L15.5 14.3752M15.5 14.3752C15.4667 14.3752 15.4356 14.3658 15.4106 14.3502L15.5 14.3752ZM29.349 5.38145L29.7658 5.11925L29.6909 4.63258C29.5455 3.68752 29.0572 2.82887 28.3206 2.21006C27.5844 1.59167 26.6482 1.25267 25.682 1.25H25.6799L5.3201 1.25L5.31803 1.25C4.35183 1.25267 3.41559 1.59167 2.67942 2.21006C1.94276 2.82887 1.45452 3.68752 1.30912 4.63258L1.23425 5.11925L1.65103 5.38145L15.1006 13.8427L15.5 14.0939L15.8994 13.8427L29.349 5.38145Z" stroke="black" stroke-width="1.5"/>
</g>
</svg>
