<svg width="27" height="27" viewBox="0 0 27 27" fill="none" xmlns="http://www.w3.org/2000/svg">
<g id="paper-plane-top-svgrepo-com 1" clip-path="url(#clip0_24_1199)">
<path id="Vector" d="M26.0142 13.5344C26.0992 13.3991 26.1494 13.234 26.1494 13.0574C26.1494 12.8809 26.0992 12.7165 26.0118 12.5772L26.0142 12.5813C25.9899 12.54 25.9664 12.5052 25.9405 12.472L25.9421 12.4744C25.8611 12.3634 25.7615 12.2711 25.6457 12.2023L25.6409 12.1999C25.6206 12.1877 25.6109 12.1634 25.5891 12.1529L2.91548 0.816118C2.78349 0.748907 2.62801 0.709229 2.46363 0.709229C1.90408 0.709229 1.45142 1.1627 1.45142 1.72144C1.45142 1.86558 1.48138 2.00243 1.53563 2.12633L1.5332 2.11985L6.22097 13.0582L1.5332 23.9966C1.48138 24.114 1.45142 24.2509 1.45142 24.395C1.45142 24.9538 1.90489 25.4072 2.46363 25.4072C2.46444 25.4072 2.46606 25.4072 2.46687 25.4072C2.63125 25.4072 2.78592 25.3676 2.92277 25.2971L2.9171 25.2995L25.5907 13.9636C25.6125 13.953 25.6215 13.9287 25.6425 13.9166C25.7624 13.8453 25.8628 13.753 25.9413 13.6445L25.9429 13.6413C25.9672 13.6105 25.9915 13.5749 26.0126 13.5384L26.015 13.5336L26.0142 13.5344ZM4.48239 3.86248L20.8495 12.0452L7.99031 12.0452L4.48239 3.86248ZM7.99031 14.0696L20.8495 14.0696L4.48239 22.2524L7.99031 14.0696Z" fill="black"/>
</g>
<defs>
<clipPath id="clip0_24_1199">
<rect width="25.9127" height="25.9127" fill="white" transform="translate(0.843994 0.101074)"/>
</clipPath>
</defs>
</svg>
