<svg width="26" height="26" viewBox="0 0 26 26" fill="none" xmlns="http://www.w3.org/2000/svg">
<g id="Group 7759">
<path id="Vector" d="M24.7884 19.6122L24.7885 19.6123C25.3814 20.2039 25.4325 21.295 24.7694 22.0682L22.3211 24.5114L22.8509 25.0423L22.3211 24.5114C21.8508 24.9807 21.1473 25.2482 20.1773 25.25C19.2012 25.2518 18.0069 24.9814 16.6585 24.4292C13.9645 23.3259 10.7986 21.1562 7.79778 18.1617C4.79942 15.1697 2.65751 12.0117 1.56756 9.32365C1.02209 7.97839 0.753633 6.78415 0.750037 5.80628C0.746469 4.8362 1.00113 4.13317 1.44208 3.66601L3.90205 1.21121C4.49588 0.61863 5.59184 0.567737 6.36769 1.2302L9.98468 4.83958C10.907 5.75992 10.5004 7.26648 9.3853 7.60886L9.37699 7.61141L9.36875 7.61415C7.88488 8.10767 6.80769 9.7674 7.3251 11.3817C7.70361 12.9264 8.84458 14.5551 10.1666 15.8576C11.4981 17.1695 13.1382 18.2736 14.6182 18.6428L14.6277 18.6452L14.6373 18.6473C16.1441 18.9815 17.8451 18.163 18.368 16.5977L18.3707 16.5894L18.3733 16.5811C18.7157 15.4708 20.2276 15.0609 21.1524 15.9839L24.7884 19.6122Z" stroke="black" stroke-width="1.5"/>
</g>
</svg>
