<svg width="61" height="61" viewBox="0 0 61 61" fill="none" xmlns="http://www.w3.org/2000/svg">
<g id="Group 8630">
<circle id="Ellipse 5" cx="30.5" cy="30.5" r="30.5" fill="#FFBC12"/>
<g id="Page-1">
<g id="Dribbble-Light-Preview">
<g id="icons">
<path id="twitter-[#154]" fill-rule="evenodd" clip-rule="evenodd" d="M26.2367 38.7292C34.9196 38.7292 39.6689 31.6461 39.6689 25.5045C39.6689 25.3029 39.6689 25.1028 39.6551 24.9034C40.5789 24.2464 41.3762 23.4307 42.0102 22.4974C41.1496 22.8734 40.2349 23.12 39.2996 23.2288C40.2844 22.6477 41.0219 21.7348 41.3751 20.6576C40.4478 21.199 39.4342 21.5811 38.3769 21.7862C36.589 19.9149 33.5988 19.8242 31.697 21.5845C30.4717 22.7195 29.9505 24.4117 30.3314 26.0258C26.5358 25.8378 22.9992 24.0731 20.6015 21.1699C19.3486 23.2937 19.9894 26.0097 22.0638 27.3735C21.3125 27.352 20.5773 27.1529 19.9204 26.7927V26.8516C19.9216 29.0639 21.5058 30.9687 23.7079 31.407C23.013 31.5939 22.2835 31.6211 21.5771 31.4863C22.195 33.3802 23.9679 34.6774 25.987 34.7148C24.3153 36.0083 22.2502 36.7107 20.124 36.7085C19.749 36.7073 19.3739 36.6858 19 36.6416C21.1595 38.0054 23.6711 38.7292 26.2367 38.7258" fill="white"/>
</g>
</g>
</g>
</g>
</svg>
