<svg width="18" height="19" viewBox="0 0 18 19" fill="none" xmlns="http://www.w3.org/2000/svg">
<g id="Group 8114">
<path id="Ellipse 33" d="M9 18C13.6944 18 17.5 14.1944 17.5 9.5C17.5 4.80558 13.6944 1 9 1C4.30558 1 0.5 4.80558 0.5 9.5C0.5 14.1944 4.30558 18 9 18Z" stroke="black"/>
<path id="Vector 8 (Stroke)" fill-rule="evenodd" clip-rule="evenodd" d="M13.0343 7.06572C13.2425 7.274 13.2425 7.61169 13.0343 7.81996L8.46283 12.3914C8.25455 12.5997 7.91686 12.5997 7.70858 12.3914L5.1943 9.87711C4.98602 9.66883 4.98602 9.33114 5.1943 9.12286C5.40258 8.91458 5.74026 8.91458 5.94854 9.12286L8.08571 11.26L12.28 7.06572C12.4883 6.85744 12.826 6.85744 13.0343 7.06572Z" fill="black"/>
</g>
</svg>
