<svg width="11" height="12" viewBox="0 0 11 12" fill="none" xmlns="http://www.w3.org/2000/svg">
<path d="M1 5.25C0.585786 5.25 0.25 5.58579 0.25 6C0.25 6.41421 0.585786 6.75 1 6.75V5.25ZM10.5303 6.53033C10.8232 6.23744 10.8232 5.76256 10.5303 5.46967L5.75736 0.696699C5.46447 0.403806 4.98959 0.403806 4.6967 0.696699C4.40381 0.989593 4.40381 1.46447 4.6967 1.75736L8.93934 6L4.6967 10.2426C4.40381 10.5355 4.40381 11.0104 4.6967 11.3033C4.98959 11.5962 5.46447 11.5962 5.75736 11.3033L10.5303 6.53033ZM1 6.75H10V5.25H1V6.75Z" fill="#0FC1CC"/>
</svg>
